<?xml version="1.0" encoding="UTF-8" standalone="no"?>
<!-- Generator: Adobe Illustrator 22.0.1, SVG Export Plug-In . SVG Version: 6.00 Build 0)  -->

<svg
   xmlns:dc="http://purl.org/dc/elements/1.1/"
   xmlns:cc="http://creativecommons.org/ns#"
   xmlns:rdf="http://www.w3.org/1999/02/22-rdf-syntax-ns#"
   xmlns:svg="http://www.w3.org/2000/svg"
   xmlns="http://www.w3.org/2000/svg"
   xmlns:sodipodi="http://sodipodi.sourceforge.net/DTD/sodipodi-0.dtd"
   xmlns:inkscape="http://www.inkscape.org/namespaces/inkscape"
   version="1.1"
   x="0px"
   y="0px"
   viewBox="0 0 60 60"
   enable-background="new 0 0 48 48"
   xml:space="preserve"
   id="svg2"
   inkscape:version="0.92.3 (2405546, 2018-03-11)"
   sodipodi:docname="Icon.svg"
   width="60"
   height="60"
   inkscape:export-filename="C:\Develop\Qt\ETCOSCTester\ETCOSCTester\res\Icon256.png"
   inkscape:export-xdpi="409.60001"
   inkscape:export-ydpi="409.60001"><metadata
     id="metadata49"><rdf:RDF><cc:Work
         rdf:about=""><dc:format>image/svg+xml</dc:format><dc:type
           rdf:resource="http://purl.org/dc/dcmitype/StillImage" /><dc:title></dc:title></cc:Work></rdf:RDF></metadata><defs
     id="defs47"><radialGradient
       gradientUnits="userSpaceOnUse"
       gradientTransform="matrix(0.02273684,0,0,0.02273684,-77.205638,-104.63353)"
       r="1211.2091"
       cy="5929.8042"
       cx="4721.769"
       id="SVGID_2_"><stop
         offset="0"
         style="stop-color:#1A1A1A"
         id="stop12" /><stop
         offset="0.55"
         style="stop-color:#404040"
         id="stop10" /></radialGradient></defs><sodipodi:namedview
     pagecolor="#ffffff"
     bordercolor="#666666"
     borderopacity="1"
     objecttolerance="10"
     gridtolerance="10"
     guidetolerance="10"
     inkscape:pageopacity="0"
     inkscape:pageshadow="2"
     inkscape:window-width="1920"
     inkscape:window-height="1017"
     id="namedview45"
     showgrid="false"
     fit-margin-top="0"
     fit-margin-left="0"
     fit-margin-right="0"
     fit-margin-bottom="0"
     inkscape:zoom="9.8333334"
     inkscape:cx="28.027467"
     inkscape:cy="19.949276"
     inkscape:window-x="-8"
     inkscape:window-y="-8"
     inkscape:window-maximized="1"
     inkscape:current-layer="svg2" /><path
     id="path5"
     d="M 55.263159,60 4.736842,60 C 2.120526,60 0,57.879474 0,55.263158 L 0,4.7368413 C 0,2.1205253 2.120526,-6.9384766e-7 4.736842,-6.9384766e-7 l 50.526317,0 c 2.616316,0 4.736842,2.12052599384766 4.736842,4.73684199384766 l 0,50.5263167 C 60.000001,57.879474 57.879475,60 55.263159,60 Z"
     inkscape:connector-curvature="0"
     style="fill:#000000;fill-opacity:1" /><path
     id="path7"
     d="M 58.421054,60 1.578947,60 C 0.710526,60 0,59.289474 0,58.421053 L 0,1.5789463 C 0,0.71052531 0.710526,-6.9384766e-7 1.578947,-6.9384766e-7 l 56.842107,0 c 0.871579,0 1.578947,0.70736800384766 1.578947,1.57894699384766 l 0,56.8421067 C 60.000001,59.289474 59.289475,60 58.421054,60 Z"
     inkscape:connector-curvature="0"
     style="fill:none" /><path
     id="path14"
     d="m 4.256842,3.6157893 c 0,0.353684 -0.287368,0.641052 -0.641052,0.641052 -0.353685,0 -0.641053,-0.287368 -0.641053,-0.641052 0,-0.353685 0.287368,-0.641053 0.641053,-0.641053 0.353684,0 0.641052,0.285789 0.641052,0.641053 z m 4.63579,-0.737369 c -0.407369,0 -0.737369,0.33 -0.737369,0.737369 0,0.407368 0.33,0.737368 0.737369,0.737368 0.407368,0 0.737368,-0.33 0.737368,-0.737368 0,-0.407369 -0.33,-0.737369 -0.737368,-0.737369 z m 5.276842,-0.184737 c -0.508421,0 -0.922105,0.412106 -0.922105,0.922106 0,0.508421 0.412105,0.922105 0.922105,0.922105 0.508421,0 0.922105,-0.412105 0.922105,-0.922105 0,-0.51 -0.413684,-0.922106 -0.922105,-0.922106 z m 5.276842,0 c -0.508421,0 -0.922105,0.412106 -0.922105,0.922106 0,0.508421 0.412105,0.922105 0.922105,0.922105 0.51,0 0.922105,-0.413684 0.922105,-0.922105 0,-0.51 -0.413684,-0.922106 -0.922105,-0.922106 z m 5.276842,-0.09158 c -0.560526,0 -1.013684,0.453158 -1.013684,1.013685 0,0.560526 0.453158,1.013684 1.013684,1.013684 0.560527,0 1.013685,-0.453158 1.013685,-1.013684 0,-0.560527 -0.453158,-1.013685 -1.013685,-1.013685 z m 5.276843,-0.102631 c -0.61579,0 -1.114737,0.498947 -1.114737,1.114737 0,0.615789 0.498947,1.114736 1.114737,1.114736 0.615789,0 1.114736,-0.498947 1.114736,-1.114736 0,-0.614211 -0.498947,-1.114737 -1.114736,-1.114737 z M 56.384212,28.885263 c -0.61579,0 -1.114737,0.498947 -1.114737,1.114737 0,0.615789 0.498947,1.114736 1.114737,1.114736 0.615789,0 1.116315,-0.498947 1.116315,-1.114736 0,-0.61579 -0.500526,-1.114737 -1.116315,-1.114737 z M 35.276843,2.6021043 c -0.560527,0 -1.013684,0.453158 -1.013684,1.013685 0,0.560526 0.453157,1.013684 1.013684,1.013684 0.560526,0 1.013684,-0.453158 1.013684,-1.013684 0,-0.560527 -0.453158,-1.013685 -1.013684,-1.013685 z m 5.276842,0.09158 c -0.508421,0 -0.922105,0.412106 -0.922105,0.922106 0,0.508421 0.412105,0.922105 0.922105,0.922105 0.508421,0 0.922105,-0.412105 0.922105,-0.922105 0,-0.51 -0.412105,-0.922106 -0.922105,-0.922106 z m 5.276842,0 c -0.508421,0 -0.922105,0.412106 -0.922105,0.922106 0,0.508421 0.412105,0.922105 0.922105,0.922105 0.51,0 0.922106,-0.413684 0.922106,-0.922105 0,-0.51 -0.412106,-0.922106 -0.922106,-0.922106 z m 5.276842,0.184737 c -0.407368,0 -0.737368,0.33 -0.737368,0.737369 0,0.407368 0.33,0.737368 0.737368,0.737368 0.407369,0 0.737369,-0.33 0.737369,-0.737368 0,-0.407369 -0.33,-0.737369 -0.737369,-0.737369 z m 5.276843,0.09632 c -0.353685,0 -0.641053,0.287368 -0.641053,0.641053 0,0.353684 0.287368,0.641052 0.641053,0.641052 0.353684,0 0.641052,-0.287368 0.641052,-0.641052 0,-0.355264 -0.285789,-0.641053 -0.641052,-0.641053 z M 3.61579,8.1552673 c -0.407369,0 -0.737369,0.33 -0.737369,0.737369 0,0.407368 0.33,0.737368 0.737369,0.737368 0.407368,0 0.737368,-0.33 0.737368,-0.737368 0,-0.407369 -0.33,-0.737369 -0.737368,-0.737369 z m 5.276842,-0.184737 c -0.508421,0 -0.922106,0.412106 -0.922106,0.922106 0,0.508421 0.412106,0.922105 0.922106,0.922105 0.508421,0 0.922105,-0.412105 0.922105,-0.922105 -0.0016,-0.51 -0.413684,-0.922106 -0.922105,-0.922106 z m 5.276842,0 c -0.508421,0 -0.922105,0.412106 -0.922105,0.922106 0,0.508421 0.412105,0.922105 0.922105,0.922105 0.508421,0 0.922105,-0.412105 0.922105,-0.922105 0,-0.51 -0.413684,-0.922106 -0.922105,-0.922106 z m 5.276842,-0.09158 c -0.560526,0 -1.013684,0.453157 -1.013684,1.013684 0,0.560526 0.453158,1.013684 1.013684,1.013684 0.560527,0 1.013684,-0.453158 1.013684,-1.013684 0,-0.560527 -0.454736,-1.013684 -1.013684,-1.013684 z m 5.276842,-0.461053 c -0.814736,0 -1.474736,0.66 -1.474736,1.474737 0,0.814737 0.66,1.4747367 1.474736,1.4747367 0.814737,0 1.474737,-0.6599997 1.474737,-1.4747367 0,-0.814737 -0.66,-1.474737 -1.474737,-1.474737 z m 5.276843,-0.311053 c -0.985264,0 -1.784211,0.798948 -1.784211,1.784211 0,0.985263 0.798947,1.7842097 1.784211,1.7842097 0.985263,0 1.78421,-0.7989467 1.78421,-1.7842097 0,-0.985263 -0.798947,-1.784211 -1.78421,-1.784211 z M 51.107369,28.215789 c -0.985263,0 -1.78421,0.798947 -1.78421,1.784211 0,0.985263 0.798947,1.78421 1.78421,1.78421 0.985264,0 1.784211,-0.798947 1.784211,-1.78421 0,-0.985264 -0.797368,-1.784211 -1.784211,-1.784211 z M 35.276843,7.4178943 c -0.814737,0 -1.474737,0.66 -1.474737,1.474737 0,0.814737 0.66,1.4747367 1.474737,1.4747367 0.814737,0 1.474737,-0.6599997 1.474737,-1.4747367 0,-0.814737 -0.66,-1.474737 -1.474737,-1.474737 z m 5.276842,0.461053 c -0.560526,0 -1.013684,0.453157 -1.013684,1.013684 0,0.560526 0.453158,1.013684 1.013684,1.013684 0.560526,0 1.013684,-0.453158 1.013684,-1.013684 0,-0.560527 -0.453158,-1.013684 -1.013684,-1.013684 z m 5.276842,0.09158 c -0.508421,0 -0.922105,0.412106 -0.922105,0.922106 0,0.508421 0.412105,0.922105 0.922105,0.922105 0.51,0 0.922106,-0.412105 0.922106,-0.922105 0,-0.51 -0.412106,-0.922106 -0.922106,-0.922106 z m 5.276842,0 c -0.508421,0 -0.922105,0.412106 -0.922105,0.922106 0,0.508421 0.412105,0.922105 0.922105,0.922105 0.51,0 0.922106,-0.412105 0.922106,-0.922105 0,-0.51 -0.412106,-0.922106 -0.922106,-0.922106 z m 5.276843,0.184737 c -0.407369,0 -0.737369,0.33 -0.737369,0.737369 0,0.407368 0.33,0.737368 0.737369,0.737368 0.407368,0 0.737368,-0.33 0.737368,-0.737368 0,-0.407369 -0.33,-0.737369 -0.737368,-0.737369 z M 3.61579,13.24737 c -0.508422,0 -0.922106,0.412105 -0.922106,0.922105 0,0.508421 0.412106,0.922105 0.922106,0.922105 0.508421,0 0.922105,-0.412105 0.922105,-0.922105 -0.0016,-0.51 -0.413684,-0.922105 -0.922105,-0.922105 z m 5.276842,0 c -0.508421,0 -0.922106,0.412105 -0.922106,0.922105 0,0.508421 0.412106,0.922105 0.922106,0.922105 0.508421,0 0.922105,-0.412105 0.922105,-0.922105 -0.0016,-0.51 -0.413684,-0.922105 -0.922105,-0.922105 z m 5.276842,-0.09158 c -0.560526,0 -1.013684,0.453158 -1.013684,1.013684 0,0.560526 0.453158,1.013684 1.013684,1.013684 0.560526,0 1.013684,-0.453158 1.013684,-1.013684 0,-0.560526 -0.454737,-1.013684 -1.013684,-1.013684 z m 5.276842,-0.314211 c -0.732631,0 -1.327895,0.593684 -1.327895,1.327895 0,0.734211 0.593685,1.327895 1.327895,1.327895 0.734211,0 1.327895,-0.593684 1.327895,-1.327895 0,-0.734211 -0.595263,-1.327895 -1.327895,-1.327895 z m 5.276842,-0.456316 c -0.985263,0 -1.78421,0.798948 -1.78421,1.784211 0,0.985263 0.798947,1.784211 1.78421,1.784211 0.985264,0 1.784211,-0.798948 1.784211,-1.784211 0,-0.985263 -0.798947,-1.784211 -1.784211,-1.784211 z m 5.276843,-0.281052 c -1.14,0 -2.065264,0.925263 -2.065264,2.065263 0,1.14 0.925264,2.065263 2.065264,2.065263 1.14,0 2.065263,-0.925263 2.065263,-2.065263 0,-1.141579 -0.925263,-2.065263 -2.065263,-2.065263 z m 5.276842,0.281052 c -0.985263,0 -1.784211,0.798948 -1.784211,1.784211 0,0.985263 0.798948,1.784211 1.784211,1.784211 0.985263,0 1.78421,-0.798948 1.78421,-1.784211 0,-0.985263 -0.798947,-1.784211 -1.78421,-1.784211 z m 5.276842,0.456315 c -0.732632,0 -1.327895,0.593684 -1.327895,1.327895 0,0.734211 0.593684,1.327895 1.327895,1.327895 0.734211,0 1.327895,-0.593684 1.327895,-1.327895 0,-0.734211 -0.595263,-1.327895 -1.327895,-1.327895 z m 5.276842,0.314211 c -0.560526,0 -1.013684,0.453158 -1.013684,1.013684 0,0.560526 0.453158,1.013684 1.013684,1.013684 0.560527,0 1.013684,-0.453158 1.013684,-1.013684 0,-0.560526 -0.453157,-1.013684 -1.013684,-1.013684 z m 5.276842,0.09158 c -0.508421,0 -0.922105,0.412105 -0.922105,0.922105 0,0.508421 0.412105,0.922105 0.922105,0.922105 0.51,0 0.922106,-0.412105 0.922106,-0.922105 0,-0.51 -0.412106,-0.922105 -0.922106,-0.922105 z m 5.276843,0 c -0.508421,0 -0.922106,0.412105 -0.922106,0.922105 0,0.508421 0.412106,0.922105 0.922106,0.922105 0.51,0 0.922105,-0.412105 0.922105,-0.922105 0,-0.51 -0.412105,-0.922105 -0.922105,-0.922105 z M 3.61579,18.524211 c -0.508422,0 -0.922106,0.412105 -0.922106,0.922105 0,0.51 0.412106,0.922105 0.922106,0.922105 0.508421,0 0.922105,-0.412105 0.922105,-0.922105 0,-0.51 -0.413684,-0.922105 -0.922105,-0.922105 z m 5.276842,-0.09158 c -0.560527,0 -1.013684,0.453158 -1.013684,1.013684 0,0.560527 0.453157,1.013684 1.013684,1.013684 0.560526,0 1.013684,-0.453157 1.013684,-1.013684 0,-0.560526 -0.454737,-1.013684 -1.013684,-1.013684 z m 5.276842,-0.314211 c -0.732632,0 -1.326316,0.595264 -1.326316,1.327895 0,0.732632 0.593684,1.327895 1.326316,1.327895 0.732632,0 1.326316,-0.595263 1.326316,-1.327895 0,-0.732631 -0.593684,-1.327895 -1.326316,-1.327895 z m 5.276842,-0.146842 c -0.814737,0 -1.474737,0.66 -1.474737,1.474737 0,0.814737 0.66,1.474737 1.474737,1.474737 0.814737,0 1.474737,-0.66 1.474737,-1.474737 0,-0.814737 -0.66,-1.474737 -1.474737,-1.474737 z m 21.107369,0 c -0.814737,0 -1.474737,0.66 -1.474737,1.474737 0,0.814737 0.66,1.474737 1.474737,1.474737 0.814737,0 1.474737,-0.66 1.474737,-1.474737 0,-0.814737 -0.66,-1.474737 -1.474737,-1.474737 z m 5.276842,0.146842 c -0.732631,0 -1.326316,0.595264 -1.326316,1.327895 0,0.732632 0.593685,1.327895 1.326316,1.327895 0.732632,0 1.326316,-0.595263 1.326316,-1.327895 0,-0.732631 -0.593684,-1.327895 -1.326316,-1.327895 z m 5.276842,0.314211 c -0.560526,0 -1.013684,0.453158 -1.013684,1.013684 0,0.560527 0.453158,1.013684 1.013684,1.013684 0.560527,0 1.013685,-0.453157 1.013685,-1.013684 0,-0.560526 -0.453158,-1.013684 -1.013685,-1.013684 z m 5.276843,0.09158 c -0.508421,0 -0.922106,0.412105 -0.922106,0.922105 0,0.51 0.413685,0.922105 0.922106,0.922105 0.508421,0 0.922105,-0.412105 0.922105,-0.922105 0,-0.51 -0.412105,-0.922105 -0.922105,-0.922105 z M 3.61579,23.709474 c -0.560527,0 -1.013685,0.453158 -1.013685,1.013684 0,0.560527 0.453158,1.013685 1.013685,1.013685 0.560526,0 1.013684,-0.453158 1.013684,-1.013685 0,-0.560526 -0.454737,-1.013684 -1.013684,-1.013684 z m 5.276842,-0.205263 c -0.672632,0 -1.218948,0.546316 -1.218948,1.218947 0,0.672632 0.546316,1.218948 1.218948,1.218948 0.672631,0 1.218947,-0.546316 1.218947,-1.218948 0,-0.672631 -0.546316,-1.218947 -1.218947,-1.218947 z m 10.553684,-0.743684 c -1.084737,0 -1.962631,0.879473 -1.962631,1.962631 0,1.083158 0.879473,1.962632 1.962631,1.962632 1.083158,0 1.962632,-0.879474 1.962632,-1.962632 0,-1.083158 -0.877895,-1.962631 -1.962632,-1.962631 z m 5.276842,-0.197369 c -1.192105,0 -2.16,0.966316 -2.16,2.16 0,1.193685 0.966316,2.16 2.16,2.16 1.192106,0 2.16,-0.966315 2.16,-2.16 0,-1.193684 -0.967894,-2.16 -2.16,-2.16 z m 10.553685,0 c -1.192105,0 -2.16,0.966316 -2.16,2.16 0,1.193685 0.966316,2.16 2.16,2.16 1.192105,0 2.16,-0.966315 2.16,-2.16 0,-1.193684 -0.967895,-2.16 -2.16,-2.16 z m 0,10.553685 c -1.192105,0 -2.16,0.966316 -2.16,2.16 0,1.193684 0.966316,2.16 2.16,2.16 1.192105,0 2.16,-0.966316 2.16,-2.16 0,-1.193684 -0.967895,-2.16 -2.16,-2.16 z m -10.553685,0 c -1.192105,0 -2.16,0.966316 -2.16,2.16 0,1.193684 0.966316,2.16 2.16,2.16 1.192106,0 2.16,-0.966316 2.16,-2.16 0,-1.193684 -0.967894,-2.16 -2.16,-2.16 z m 0,-5.491579 c -1.312105,0 -2.374737,1.06421 -2.374737,2.374737 0,1.310526 1.064211,2.374736 2.374737,2.374736 1.312106,0 2.374737,-1.06421 2.374737,-2.374736 0,-1.310527 -1.062631,-2.374737 -2.374737,-2.374737 z m 10.553685,0 c -1.312105,0 -2.374737,1.06421 -2.374737,2.374737 0,1.310526 1.06421,2.374736 2.374737,2.374736 1.312105,0 2.374737,-1.06421 2.374737,-2.374736 0,-1.310527 -1.062632,-2.374737 -2.374737,-2.374737 z m -5.276842,5.276842 c -1.312106,0 -2.374737,1.06421 -2.374737,2.374737 0,1.310526 1.06421,2.374737 2.374737,2.374737 1.312105,0 2.374737,-1.064211 2.374737,-2.374737 0,-1.310527 -1.062632,-2.374737 -2.374737,-2.374737 z m 0,-10.553685 c -1.312106,0 -2.374737,1.064211 -2.374737,2.374737 0,1.310527 1.06421,2.374737 2.374737,2.374737 1.312105,0 2.374737,-1.06421 2.374737,-2.374737 0,-1.310526 -1.062632,-2.374737 -2.374737,-2.374737 z m 0,5.038422 c -1.443158,0 -2.613158,1.17 -2.613158,2.613158 0,1.443158 1.17,2.613158 2.613158,2.613158 1.443157,0 2.613157,-1.17 2.613157,-2.613158 0,-1.443158 -1.17,-2.613158 -2.613157,-2.613158 z m 10.553684,-4.626317 c -1.084737,0 -1.962632,0.879473 -1.962632,1.962631 0,1.083158 0.879474,1.962632 1.962632,1.962632 1.083158,0 1.962632,-0.879474 1.962632,-1.962632 0,-1.083158 -0.877895,-1.962631 -1.962632,-1.962631 z m 5.276842,0.178421 c -0.985263,0 -1.78421,0.798947 -1.78421,1.78421 0,0.985264 0.798947,1.784211 1.78421,1.784211 0.985263,0 1.784211,-0.798947 1.784211,-1.784211 0,-0.985263 -0.798948,-1.78421 -1.784211,-1.78421 z m 5.276842,0.565263 c -0.672631,0 -1.218947,0.546316 -1.218947,1.218947 0,0.672632 0.546316,1.218948 1.218947,1.218948 0.672632,0 1.218948,-0.546316 1.218948,-1.218948 0,-0.672631 -0.544737,-1.218947 -1.218948,-1.218947 z m 5.276843,0.205263 c -0.560527,0 -1.013685,0.453158 -1.013685,1.013684 0,0.560527 0.454737,1.013685 1.013685,1.013685 0.558947,0 1.013684,-0.453158 1.013684,-1.013685 0,-0.560526 -0.453158,-1.013684 -1.013684,-1.013684 z M 3.61579,28.885263 C 3,28.885263 2.501053,29.38421 2.501053,30 c 0,0.615789 0.498947,1.114736 1.114737,1.114736 0.615789,0 1.114736,-0.498947 1.114736,-1.114736 0,-0.61579 -0.498947,-1.114737 -1.114736,-1.114737 z m 5.276842,-0.669474 c -0.985263,0 -1.784211,0.798947 -1.784211,1.784211 0,0.985263 0.798948,1.78421 1.784211,1.78421 0.985263,0 1.78421,-0.798947 1.78421,-1.78421 0,-0.985264 -0.798947,-1.784211 -1.78421,-1.784211 z m 5.276842,-0.281053 c -1.14,0 -2.065263,0.925264 -2.065263,2.065264 0,1.14 0.925263,2.065263 2.065263,2.065263 1.14,0 2.065263,-0.925263 2.065263,-2.065263 0,-1.14 -0.925263,-2.065264 -2.065263,-2.065264 z m 5.276842,-0.206842 c -1.255263,0 -2.272105,1.016842 -2.272105,2.272106 0,1.255263 1.016842,2.272105 2.272105,2.272105 1.255263,0 2.272105,-1.016842 2.272105,-2.272105 0,-1.255264 -1.016842,-2.272106 -2.272105,-2.272106 z m 21.107369,0 c -1.255263,0 -2.272105,1.016842 -2.272105,2.272106 0,1.255263 1.016842,2.272105 2.272105,2.272105 1.255263,0 2.272105,-1.016842 2.272105,-2.272105 0,-1.255264 -1.016842,-2.272106 -2.272105,-2.272106 z m 5.276842,0.206842 c -1.14,0 -2.065263,0.925264 -2.065263,2.065264 0,1.14 0.925263,2.065263 2.065263,2.065263 1.14,0 2.065263,-0.925263 2.065263,-2.065263 0,-1.14 -0.923684,-2.065264 -2.065263,-2.065264 z M 3.61579,34.263158 c -0.560527,0 -1.013685,0.453157 -1.013685,1.013684 0,0.560526 0.453158,1.013684 1.013685,1.013684 0.560526,0 1.013684,-0.453158 1.013684,-1.013684 0,-0.560527 -0.454737,-1.013684 -1.013684,-1.013684 z m 5.276842,-0.205264 c -0.672632,0 -1.218948,0.546316 -1.218948,1.218948 0,0.672631 0.546316,1.218947 1.218948,1.218947 0.672631,0 1.218947,-0.546316 1.218947,-1.218947 0,-0.672632 -0.546316,-1.218948 -1.218947,-1.218948 z m 5.276842,-0.565263 c -0.985263,0 -1.784211,0.798948 -1.784211,1.784211 0,0.985263 0.798948,1.78421 1.784211,1.78421 0.985263,0 1.784211,-0.798947 1.784211,-1.78421 0,-0.985263 -0.798948,-1.784211 -1.784211,-1.784211 z m 0,-10.553684 c -0.985263,0 -1.784211,0.798947 -1.784211,1.78421 0,0.985264 0.798948,1.784211 1.784211,1.784211 0.985263,0 1.784211,-0.798947 1.784211,-1.784211 0,-0.985263 -0.798948,-1.78421 -1.784211,-1.78421 z m 5.276842,10.375263 c -1.084737,0 -1.962631,0.879474 -1.962631,1.962632 0,1.083158 0.879473,1.962631 1.962631,1.962631 1.083158,0 1.962632,-0.879473 1.962632,-1.962631 0,-1.083158 -0.877895,-1.962632 -1.962632,-1.962632 z M 37.239474,19.446315 c 0,-1.084737 -0.879473,-1.962631 -1.962631,-1.962631 -1.083158,0 -1.962632,0.879473 -1.962632,1.962631 0,1.083158 0.879474,1.962632 1.962632,1.962632 1.083158,0 1.962631,-0.879474 1.962631,-1.962632 z m -4.967368,0 c 0,-1.255263 -1.016842,-2.272105 -2.272105,-2.272105 -1.255264,0 -2.272106,1.016842 -2.272106,2.272105 0,1.255263 1.016842,2.272105 2.272106,2.272105 1.255263,0 2.272105,-1.016842 2.272105,-2.272105 z m -5.586316,0 c 0,-1.084737 -0.879474,-1.962631 -1.962632,-1.962631 -1.083158,0 -1.962631,0.879473 -1.962631,1.962631 0,1.083158 0.879473,1.962632 1.962631,1.962632 1.083158,0 1.962632,-0.879474 1.962632,-1.962632 z m 10.553684,21.107369 c 0,-1.084737 -0.879473,-1.962632 -1.962631,-1.962632 -1.083158,0 -1.962632,0.879474 -1.962632,1.962632 0,1.083158 0.879474,1.962632 1.962632,1.962632 1.083158,0 1.962631,-0.877895 1.962631,-1.962632 z m -4.967368,0 c 0,-1.255263 -1.016842,-2.272105 -2.272105,-2.272105 -1.255264,0 -2.272106,1.016842 -2.272106,2.272105 0,1.255263 1.016842,2.272105 2.272106,2.272105 1.255263,0 2.272105,-1.016842 2.272105,-2.272105 z m -5.586316,0 c 0,-1.084737 -0.879474,-1.962632 -1.962632,-1.962632 -1.083158,0 -1.962631,0.879474 -1.962631,1.962632 0,1.083158 0.879473,1.962632 1.962631,1.962632 1.083158,0 1.962632,-0.877895 1.962632,-1.962632 z M 40.553685,33.31421 c -1.084737,0 -1.962632,0.879474 -1.962632,1.962632 0,1.083158 0.879474,1.962631 1.962632,1.962631 1.083158,0 1.962632,-0.879473 1.962632,-1.962631 0,-1.083158 -0.877895,-1.962632 -1.962632,-1.962632 z m 5.276842,0.178421 c -0.985263,0 -1.78421,0.798948 -1.78421,1.784211 0,0.985263 0.798947,1.78421 1.78421,1.78421 0.985263,0 1.784211,-0.798947 1.784211,-1.78421 0,-0.985263 -0.798948,-1.784211 -1.784211,-1.784211 z m 5.276842,0.565263 c -0.672631,0 -1.218947,0.546316 -1.218947,1.218948 0,0.672631 0.546316,1.218947 1.218947,1.218947 0.672632,0 1.218948,-0.546316 1.218948,-1.218947 0,-0.672632 -0.544737,-1.218948 -1.218948,-1.218948 z m 5.276843,0.205264 c -0.560527,0 -1.013685,0.453157 -1.013685,1.013684 0,0.560526 0.453158,1.013684 1.013685,1.013684 0.560526,0 1.013684,-0.453158 1.013684,-1.013684 0,-0.560527 -0.453158,-1.013684 -1.013684,-1.013684 z M 3.61579,39.631579 c -0.508422,0 -0.922106,0.412105 -0.922106,0.922105 0,0.51 0.412106,0.922105 0.922106,0.922105 0.508421,0 0.922105,-0.412105 0.922105,-0.922105 0,-0.51 -0.413684,-0.922105 -0.922105,-0.922105 z m 5.276842,-0.09158 c -0.560527,0 -1.013684,0.453158 -1.013684,1.013684 0,0.560526 0.453157,1.013684 1.013684,1.013684 0.560526,0 1.013684,-0.453158 1.013684,-1.013684 0,-0.560526 -0.454737,-1.013684 -1.013684,-1.013684 z m 5.276842,-0.314211 c -0.732632,0 -1.326316,0.595263 -1.326316,1.327895 0,0.732632 0.593684,1.327895 1.326316,1.327895 0.732632,0 1.326316,-0.595263 1.326316,-1.327895 0,-0.732632 -0.593684,-1.327895 -1.326316,-1.327895 z m 5.276842,-0.146842 c -0.814737,0 -1.474737,0.66 -1.474737,1.474737 0,0.814737 0.66,1.474737 1.474737,1.474737 0.814737,0 1.474737,-0.66 1.474737,-1.474737 0,-0.814737 -0.66,-1.474737 -1.474737,-1.474737 z m 21.107369,0 c -0.814737,0 -1.474737,0.66 -1.474737,1.474737 0,0.814737 0.66,1.474737 1.474737,1.474737 0.814737,0 1.474737,-0.66 1.474737,-1.474737 0,-0.814737 -0.66,-1.474737 -1.474737,-1.474737 z m 5.276842,0.146842 c -0.732631,0 -1.326316,0.595263 -1.326316,1.327895 0,0.732632 0.593685,1.327895 1.326316,1.327895 0.732632,0 1.326316,-0.595263 1.326316,-1.327895 0,-0.732632 -0.593684,-1.327895 -1.326316,-1.327895 z m 5.276842,0.314211 c -0.560526,0 -1.013684,0.453158 -1.013684,1.013684 0,0.560526 0.453158,1.013684 1.013684,1.013684 0.560527,0 1.013685,-0.453158 1.013685,-1.013684 0,-0.560526 -0.453158,-1.013684 -1.013685,-1.013684 z m 5.276843,0.09158 c -0.508421,0 -0.922106,0.412105 -0.922106,0.922105 0,0.51 0.412106,0.922105 0.922106,0.922105 0.51,0 0.922105,-0.412105 0.922105,-0.922105 0,-0.51 -0.412105,-0.922105 -0.922105,-0.922105 z M 3.61579,44.908421 c -0.508422,0 -0.922106,0.412105 -0.922106,0.922105 0,0.508421 0.412106,0.922106 0.922106,0.922106 0.508421,0 0.922105,-0.412106 0.922105,-0.922106 -0.0016,-0.508421 -0.413684,-0.922105 -0.922105,-0.922105 z m 5.276842,0 c -0.508421,0 -0.922106,0.412105 -0.922106,0.922105 0,0.508421 0.412106,0.922106 0.922106,0.922106 0.508421,0 0.922105,-0.412106 0.922105,-0.922106 -0.0016,-0.508421 -0.413684,-0.922105 -0.922105,-0.922105 z m 5.276842,-0.09158 c -0.560526,0 -1.013684,0.453158 -1.013684,1.013684 0,0.560527 0.453158,1.013684 1.013684,1.013684 0.560526,0 1.013684,-0.453157 1.013684,-1.013684 0,-0.558947 -0.454737,-1.013684 -1.013684,-1.013684 z m 5.276842,-0.312632 c -0.732631,0 -1.327895,0.593685 -1.327895,1.327895 0,0.732632 0.593685,1.327895 1.327895,1.327895 0.734211,0 1.327895,-0.593684 1.327895,-1.327895 0,-0.73421 -0.595263,-1.327895 -1.327895,-1.327895 z m 5.276842,-0.457894 c -0.985263,0 -1.78421,0.798947 -1.78421,1.78421 0,0.985263 0.798947,1.784211 1.78421,1.784211 0.985264,0 1.784211,-0.798948 1.784211,-1.784211 0,-0.985263 -0.798947,-1.78421 -1.784211,-1.78421 z m 5.276843,-0.281053 c -1.14,0 -2.065264,0.925263 -2.065264,2.065263 0,1.14 0.925264,2.065263 2.065264,2.065263 1.14,0 2.065263,-0.925263 2.065263,-2.065263 0,-1.14 -0.925263,-2.065263 -2.065263,-2.065263 z m 5.276842,0.281053 c -0.985263,0 -1.784211,0.798947 -1.784211,1.78421 0,0.985263 0.798948,1.784211 1.784211,1.784211 0.985263,0 1.78421,-0.798948 1.78421,-1.784211 0,-0.985263 -0.798947,-1.78421 -1.78421,-1.78421 z m 5.276842,0.457894 c -0.732632,0 -1.327895,0.593685 -1.327895,1.327895 0,0.732632 0.593684,1.327895 1.327895,1.327895 0.734211,0 1.327895,-0.593684 1.327895,-1.327895 0,-0.73421 -0.595263,-1.327895 -1.327895,-1.327895 z m 5.276842,0.312632 c -0.560526,0 -1.013684,0.453158 -1.013684,1.013684 0,0.560527 0.453158,1.013684 1.013684,1.013684 0.560527,0 1.013684,-0.453157 1.013684,-1.013684 0,-0.558947 -0.453157,-1.013684 -1.013684,-1.013684 z m 5.276842,0.09158 c -0.508421,0 -0.922105,0.412105 -0.922105,0.922105 0,0.508421 0.412105,0.922106 0.922105,0.922106 0.51,0 0.922106,-0.412106 0.922106,-0.922106 0,-0.508421 -0.412106,-0.922105 -0.922106,-0.922105 z m 5.276843,0 c -0.508421,0 -0.922106,0.412105 -0.922106,0.922105 0,0.508421 0.412106,0.922106 0.922106,0.922106 0.51,0 0.922105,-0.412106 0.922105,-0.922106 0,-0.508421 -0.412105,-0.922105 -0.922105,-0.922105 z M 3.61579,50.37 c -0.407369,0 -0.737369,0.33 -0.737369,0.737368 0,0.407369 0.33,0.737369 0.737369,0.737369 0.407368,0 0.737368,-0.33 0.737368,-0.737369 C 4.353158,50.7 4.023158,50.37 3.61579,50.37 Z m 5.276842,-0.183158 c -0.508421,0 -0.922106,0.412105 -0.922106,0.922105 0,0.51 0.412106,0.922106 0.922106,0.922106 0.508421,0 0.922105,-0.412106 0.922105,-0.922106 0,-0.51 -0.413684,-0.922105 -0.922105,-0.922105 z m 5.276842,0 c -0.508421,0 -0.922105,0.412105 -0.922105,0.922105 0,0.51 0.412105,0.922106 0.922105,0.922106 0.508421,0 0.922105,-0.412106 0.922105,-0.922106 0,-0.51 -0.413684,-0.922105 -0.922105,-0.922105 z m 5.276842,-0.09316 c -0.560526,0 -1.013684,0.453158 -1.013684,1.013684 0,0.560527 0.453158,1.013685 1.013684,1.013685 0.560527,0 1.013684,-0.453158 1.013684,-1.013685 0,-0.560526 -0.454736,-1.013684 -1.013684,-1.013684 z m 5.276842,-0.461052 c -0.814736,0 -1.474736,0.66 -1.474736,1.474736 0,0.814737 0.66,1.474737 1.474736,1.474737 0.814737,0 1.474737,-0.66 1.474737,-1.474737 0,-0.814736 -0.66,-1.474736 -1.474737,-1.474736 z m 5.276843,-0.309474 c -0.985264,0 -1.784211,0.798947 -1.784211,1.78421 0,0.985264 0.798947,1.784211 1.784211,1.784211 0.985263,0 1.78421,-0.798947 1.78421,-1.784211 0,-0.985263 -0.798947,-1.78421 -1.78421,-1.78421 z m 5.276842,0.309474 c -0.814737,0 -1.474737,0.66 -1.474737,1.474736 0,0.814737 0.66,1.474737 1.474737,1.474737 0.814737,0 1.474737,-0.66 1.474737,-1.474737 0,-0.814736 -0.66,-1.474736 -1.474737,-1.474736 z m 5.276842,0.461052 c -0.560526,0 -1.013684,0.453158 -1.013684,1.013684 0,0.560527 0.453158,1.013685 1.013684,1.013685 0.560526,0 1.013684,-0.453158 1.013684,-1.013685 0,-0.560526 -0.453158,-1.013684 -1.013684,-1.013684 z m 5.276842,0.09316 c -0.508421,0 -0.922105,0.412105 -0.922105,0.922105 0,0.51 0.412105,0.922106 0.922105,0.922106 0.51,0 0.922106,-0.412106 0.922106,-0.922106 0,-0.51 -0.412106,-0.922105 -0.922106,-0.922105 z m 5.276842,0 c -0.508421,0 -0.922105,0.412105 -0.922105,0.922105 0,0.51 0.412105,0.922106 0.922105,0.922106 0.51,0 0.922106,-0.412106 0.922106,-0.922106 0,-0.51 -0.412106,-0.922105 -0.922106,-0.922105 z M 56.384212,50.37 c -0.407369,0 -0.737369,0.33 -0.737369,0.737368 0,0.407369 0.33,0.737369 0.737369,0.737369 0.407368,0 0.737368,-0.33 0.737368,-0.737369 C 57.12158,50.7 56.79158,50.37 56.384212,50.37 Z M 3.61579,55.743158 c -0.353685,0 -0.641053,0.287368 -0.641053,0.641053 0,0.353684 0.287368,0.641052 0.641053,0.641052 0.353684,0 0.641052,-0.287368 0.641052,-0.641052 0,-0.353685 -0.287368,-0.641053 -0.641052,-0.641053 z m 5.276842,-0.09632 c -0.407369,0 -0.737369,0.33 -0.737369,0.737369 0,0.407368 0.33,0.737368 0.737369,0.737368 0.407368,0 0.737368,-0.33 0.737368,-0.737368 0,-0.407369 -0.33,-0.737369 -0.737368,-0.737369 z m 5.276842,-0.183158 c -0.508421,0 -0.922105,0.412106 -0.922105,0.922106 0,0.508421 0.412105,0.922105 0.922105,0.922105 0.508421,0 0.922105,-0.412105 0.922105,-0.922105 0,-0.51 -0.413684,-0.922106 -0.922105,-0.922106 z m 5.276842,0 c -0.508421,0 -0.922105,0.412106 -0.922105,0.922106 0,0.508421 0.412105,0.922105 0.922105,0.922105 0.51,0 0.922105,-0.413684 0.922105,-0.923684 0,-0.508421 -0.413684,-0.920527 -0.922105,-0.920527 z m 5.276842,-0.09316 c -0.560526,0 -1.013684,0.453158 -1.013684,1.013685 0,0.560526 0.453158,1.013684 1.013684,1.013684 0.560527,0 1.013685,-0.453158 1.013685,-1.013684 0,-0.558948 -0.453158,-1.013685 -1.013685,-1.013685 z m 5.276843,-0.101052 c -0.61579,0 -1.114737,0.498947 -1.114737,1.114737 0,0.615789 0.498947,1.114737 1.114737,1.114737 0.615789,0 1.114736,-0.498948 1.114736,-1.114737 0,-0.61579 -0.498947,-1.114737 -1.114736,-1.114737 z m 5.276842,0.101052 c -0.560527,0 -1.013684,0.453158 -1.013684,1.013685 0,0.560526 0.453157,1.013684 1.013684,1.013684 0.560526,0 1.013684,-0.453158 1.013684,-1.013684 0,-0.558948 -0.453158,-1.013685 -1.013684,-1.013685 z m 5.276842,0.09316 c -0.508421,0 -0.922105,0.412106 -0.922105,0.922106 0,0.508421 0.412105,0.922105 0.922105,0.922105 0.508421,0 0.922105,-0.412105 0.922105,-0.922105 0,-0.51 -0.412105,-0.922106 -0.922105,-0.922106 z m 5.276842,0 c -0.508421,0 -0.922105,0.412106 -0.922105,0.922106 0,0.508421 0.412105,0.922105 0.922105,0.922105 0.51,0 0.922106,-0.412105 0.922106,-0.922105 0,-0.51 -0.412106,-0.922106 -0.922106,-0.922106 z m 5.276842,0.183158 c -0.407368,0 -0.737368,0.33 -0.737368,0.737369 0,0.407368 0.33,0.737368 0.737368,0.737368 0.407369,0 0.737369,-0.33 0.737369,-0.737368 0,-0.407369 -0.33,-0.737369 -0.737369,-0.737369 z m 5.276843,0.09632 c -0.353685,0 -0.641053,0.287368 -0.641053,0.641053 0,0.353684 0.287368,0.641052 0.641053,0.641052 0.353684,0 0.641052,-0.287368 0.641052,-0.641052 0,-0.353685 -0.285789,-0.641053 -0.641052,-0.641053 z"
     style="fill:url(#SVGID_2_)"
     inkscape:connector-curvature="0" /><path
     id="path4186"
     d="m 18,18 24.000001,0 0,24 L 18,42 Z"
     inkscape:connector-curvature="0"
     style="fill:none" /><g
     id="g894"
     transform="translate(-0.0347825,-1.0680213)"><path
       d="m 10.636043,44.814394 q -2.8159677,0 -4.9649959,-1.222723 Q 3.5220188,42.350422 2.3363484,40.108763 1.169203,37.848578 1.169203,34.884402 v -7.632755 q 0,-2.964177 1.1671454,-5.205836 1.1856704,-2.260184 3.3346987,-3.482907 2.1490282,-1.24125 4.9649959,-1.24125 2.815967,0 4.964996,1.24125 2.149028,1.222723 3.316172,3.482907 1.185672,2.241659 1.185672,5.205836 v 7.632755 q 0,2.964176 -1.185672,5.224361 -1.167144,2.241659 -3.316172,3.482908 -2.149029,1.222723 -4.964996,1.222723 z m 0,-3.723747 q 1.667349,0 2.927124,-0.741044 1.278301,-0.75957 1.963767,-2.130502 0.703992,-1.389458 0.703992,-3.205016 v -7.892121 q 0,-1.815558 -0.703992,-3.18649 -0.685466,-1.389457 -1.963767,-2.130502 -1.259775,-0.75957 -2.927124,-0.75957 -1.6673495,0 -2.9456506,0.75957 -1.2597749,0.741045 -1.9637669,2.130502 -0.6854659,1.370932 -0.6854659,3.18649 v 7.892121 q 0,1.815558 0.6854659,3.205016 0.703992,1.370932 1.9637669,2.130502 1.2783011,0.741044 2.9456506,0.741044 z"
       style="font-style:normal;font-variant:normal;font-weight:normal;font-stretch:normal;font-size:medium;line-height:1.25;font-family:Bahnschrift;-inkscape-font-specification:Bahnschrift;letter-spacing:0px;word-spacing:0px;fill:#0526ff;fill-opacity:1;stroke:none;stroke-width:0.94853657"
       id="path881"
       inkscape:connector-curvature="0" /><path
       d="m 29.236257,44.814394 q -1.94524,0 -3.686694,-0.370522 -1.741454,-0.370523 -3.260595,-1.111567 -1.500615,-0.741044 -2.815968,-1.85261 v 0 l 2.352816,-2.890073 v 0 q 1.537667,1.33388 3.390277,2.00082 1.85261,0.666939 4.020164,0.666939 2.927125,0 4.538897,-1.074513 1.61177,-1.09304 1.61177,-3.075334 v -0.01853 q 0,-1.407982 -0.741044,-2.223131 -0.722518,-0.833675 -1.889663,-1.222723 -1.148618,-0.407575 -2.982703,-0.741044 -0.05558,-0.01853 -0.129682,-0.01853 -0.05558,0 -0.111154,-0.01853 l -0.277892,-0.05558 q -2.704814,-0.463144 -4.409215,-1.037453 -1.685876,-0.592835 -2.890072,-2.130502 -1.204197,-1.556192 -1.204197,-4.409212 v -0.01853 q 0,-2.501025 1.111566,-4.261004 1.130092,-1.778506 3.27912,-2.704811 2.149029,-0.926306 5.168784,-0.926306 1.445035,0 2.834493,0.314944 1.407984,0.314943 2.76039,0.944831 1.370931,0.611362 2.686286,1.556193 v 0 l -2.149028,3.001229 v 0 q -1.537667,-1.130093 -3.075334,-1.685876 -1.519141,-0.574309 -3.056807,-0.574309 -2.76039,0 -4.298057,1.111567 -1.51914,1.09304 -1.51914,3.112385 v 0.01853 q 0,1.389458 0.778096,2.18608 0.796623,0.796623 1.963767,1.185671 1.185671,0.370521 3.27912,0.778096 0.07411,0.01853 0.129683,0.03705 0.07411,0 0.148209,0.01853 0.09264,0.01853 0.203788,0.03705 0.111154,0.01853 0.203786,0.03705 2.445447,0.500205 4.075743,1.18567 1.648824,0.685466 2.741864,2.223133 1.111567,1.519141 1.111567,4.168374 v 0.03705 q 0,2.463971 -1.167146,4.223951 -1.167144,1.741454 -3.390277,2.66776 -2.204605,0.907778 -5.335518,0.907778 z"
       style="font-style:normal;font-variant:normal;font-weight:normal;font-stretch:normal;font-size:medium;line-height:1.25;font-family:Bahnschrift;-inkscape-font-specification:Bahnschrift;letter-spacing:0px;word-spacing:0px;fill:#0526ff;fill-opacity:1;stroke:none;stroke-width:0.94853657"
       id="path883"
       inkscape:connector-curvature="0" /><path
       d="m 49.618784,44.814394 q -2.797441,0 -4.927944,-1.241249 -2.111976,-1.241249 -3.27912,-3.51996 -1.167144,-2.278711 -1.167144,-5.27994 V 27.38133 q 0,-3.001229 1.167144,-5.279941 1.167144,-2.27871 3.27912,-3.51996 2.130503,-1.259775 4.927944,-1.259775 2.315764,0 4.261005,1.000411 1.945241,0.981882 3.242068,2.797441 1.315353,1.815558 1.778506,4.205426 v 0 h -3.871956 v 0 q -0.351996,-1.259776 -1.185671,-2.241659 -0.815148,-1.00041 -1.926714,-1.537667 -1.111567,-0.537256 -2.297238,-0.537256 -1.648823,0 -2.890072,0.796622 -1.241249,0.796623 -1.926715,2.241659 -0.685466,1.426509 -0.685466,3.334699 v 7.391915 q 0,1.889663 0.685466,3.334699 0.685466,1.445036 1.926715,2.241659 1.241249,0.778097 2.890072,0.778097 1.204197,0 2.297238,-0.500206 1.111566,-0.500205 1.926714,-1.482089 0.833675,-0.981882 1.185671,-2.334288 v 0 h 3.871956 v 0 q -0.463153,2.389867 -1.778506,4.205426 -1.315354,1.815558 -3.260594,2.815968 -1.945241,0.981883 -4.242479,0.981883 z"
       style="font-style:normal;font-variant:normal;font-weight:normal;font-stretch:normal;font-size:medium;line-height:1.25;font-family:Bahnschrift;-inkscape-font-specification:Bahnschrift;letter-spacing:0px;word-spacing:0px;fill:#0526ff;fill-opacity:1;stroke:none;stroke-width:0.94853657"
       id="path885"
       inkscape:connector-curvature="0" /></g></svg>